PathFileType	4	(X/Y/Z)	S01_0015_Gait_markers.trc
DataRate	CameraRate	NumFrames	NumMarkers	Units	OrigDataRate	OrigDataStartFrame	OrigNumFrames
250.000000	250.000000	4	54	mm	250.000000	89	358
Frame#	Time	HEAD_ANT			R_HEAD			L_HEAD			C7			R_BACK			L_BACK			STERNUM			R_ACROMION			R_HUM_PROX			R_HUM_ANT			R_HUM_POST			R_ELBOW_LAT			R_ELBOW_MED			R_FOREARM			R_WIRST_LAT			R_WRITS_MED			R_HAND			L_ACROMION			L_HUM_PROX			L_HUM_ANT			L_HUM_POST			L_ELBOW_LAT			L_ELBOW_MED			L_FOREARM			L_WRIST_LAT			L_WIRST_MED			L_HAND			R_ILIAC			SACRUM			L_ILIAC			R_GTROCH			R_THIGH__1			R_THIGH_2			R_THIGH_3			R_THIGH_4			R_SHANK_1			R_SHANK_2			R_SHANK_3			R_SHANK_4			R_HEEL			R_FOOT_LAT			R_FOOT_MED			L_GTROCH			L_THIGH_1			L_THIGH_2			L_THIGH_3			L_THIGH_4			L_SHANK_1			L_SHANK_2			L_SHANK_3			L_SHANK_4			L_HEEL			L_FOOT_LAT			L_FOOT_MED			
		X1	Y1	Z1	X2	Y2	Z2	X3	Y3	Z3	X4	Y4	Z4	X5	Y5	Z5	X6	Y6	Z6	X7	Y7	Z7	X8	Y8	Z8	X9	Y9	Z9	X10	Y10	Z10	X11	Y11	Z11	X12	Y12	Z12	X13	Y13	Z13	X14	Y14	Z14	X15	Y15	Z15	X16	Y16	Z16	X17	Y17	Z17	X18	Y18	Z18	X19	Y19	Z19	X20	Y20	Z20	X21	Y21	Z21	X22	Y22	Z22	X23	Y23	Z23	X24	Y24	Z24	X25	Y25	Z25	X26	Y26	Z26	X27	Y27	Z27	X28	Y28	Z28	X29	Y29	Z29	X30	Y30	Z30	X31	Y31	Z31	X32	Y32	Z32	X33	Y33	Z33	X34	Y34	Z34	X35	Y35	Z35	X36	Y36	Z36	X37	Y37	Z37	X38	Y38	Z38	X39	Y39	Z39	X40	Y40	Z40	X41	Y41	Z41	X42	Y42	Z42	X43	Y43	Z43	X44	Y44	Z44	X45	Y45	Z45	X46	Y46	Z46	X47	Y47	Z47	X48	Y48	Z48	X49	Y49	Z49	X50	Y50	Z50	X51	Y51	Z51	X52	Y52	Z52	X53	Y53	Z53	X54	Y54	Z54	

90	0.356	576.0090942382812	1737.048828125	-295.8801879882809	519.234375	1681.614868164062	-220.6093139648434	518.9714965820312	1689.048828125	-368.1976318359371	389.0576782226562	1512.37646484375	-303.6043090820309	320.180908203125	1313.332885742188	-242.901184082031	321.087646484375	1321.944946289062	-385.5630798339841	568.1083374023438	1351.700927734375	-302.2084045410153	464.6829528808594	1457.519775390625	-129.7023162841794	425.3561706542969	1292.483032226562	-47.27023696899386	484.8792724609375	1205.60986328125	-49.04239654540989	363.5056457519531	1209.7548828125	-38.92532730102512	406.5092468261719	1103.456420898438	-40.33547973632788	380.6245422363281	1104.8857421875	-119.574768066406	493.6719970703125	914.0126953125	-42.86093521118143	528.4605102539062	846.7723999023438	-85.71378326415997	458.6127014160156	827.2283325195312	-49.25710296630841	522.5039672851562	756.8010864257812	-32.88594055175764	474.8338623046875	1473.07421875	-470.4591369628903	457.4258728027344	1309.624877929688	-570.4400024414059	518.3029174804688	1228.128295898438	-567.718811035156	399.4440307617188	1233.607788085938	-601.2869873046873	456.9982604980469	1128.632934570313	-608.796691894531	401.4136047363281	1121.543334960938	-554.4346923828123	559.4649047851562	950.1823120117189	-592.658508300781	586.5296630859375	887.3970336914064	-541.1625976562498	545.57666015625	868.9614257812501	-607.4654541015623	617.578369140625	809.3690795898439	-589.1486816406248	467.8900756835938	1064.713012695312	-142.9909667968748	336.8095397949219	1035.97998046875	-314.5413513183591	454.3797302246094	1054.42822265625	-489.2118835449216	431.0648803710938	921.0930786132812	-129.3697357177732	515.755859375	644.8370971679688	-160.9312744140624	568.5797119140625	670.3084106445312	-161.1839447021483	587.8173217773438	572.4666748046875	-201.5450744628905	524.289306640625	565.7420043945312	-185.7309722900389	518.74462890625	341.7792663574219	-187.6038818359374	571.6474609375	320.5293579101563	-207.9878540039062	563.5636596679688	236.8844757080079	-227.6172485351562	501.5500183105469	244.1684722900391	-211.0703430175781	444.9825134277344	42.27326583862311	-297.8818359375	606.1398315429688	20.21889305114751	-210.6766662597656	664.71435546875	29.02803802490241	-313.2477416992188	417.8482055664062	937.4285888671876	-493.9386291503904	524.4807739257812	654.2859497070314	-501.8198242187498	469.5632019042969	672.7760009765626	-507.4585876464842	462.9059753417969	567.5522460937501	-489.0306701660155	526.30859375	572.4166870117189	-490.4420166015624	349.377685546875	357.5730590820314	-485.1558837890624	297.5168151855469	389.1293029785157	-483.9003295898436	229.8911895751953	336.1323242187501	-464.9634399414062	274.4707336425781	290.4159545898439	-462.7480468749999	74.95005035400391	261.5589904785157	-387.8564453124999	118.4047698974609	96.06832122802744	-460.0225830078125	145.9939117431641	72.14129638671884	-366.7256469726562	
91	0.36	581.4113159179688	1738.023193359375	-295.7684936523434	524.6209716796875	1682.535522460938	-220.5582580566403	524.1638793945312	1690.0078125	-368.1340332031246	394.332763671875	1513.228271484375	-303.2301635742184	324.1053161621094	1314.274291992188	-243.1242523193357	326.3618774414062	1322.53564453125	-384.6568603515622	573.4420776367188	1352.81494140625	-302.251281738281	470.3698120117188	1458.570678710938	-129.6684265136716	431.5496520996094	1293.558959960938	-47.12465667724581	491.0419921875	1206.671752929688	-48.89520263671848	369.88330078125	1210.843383789062	-38.53225326538059	413.5624389648438	1104.376953125	-39.66686630248999	387.4652404785156	1105.930297851562	-118.7555541992185	501.0289916992188	915.408447265625	-43.0706672668455	535.8396606445312	848.4152221679688	-86.37542724609357	466.4138488769531	828.492431640625	-49.21849060058575	530.62353515625	758.368408203125	-33.29435348510725	479.6968688964844	1474.229858398438	-470.3109130859372	462.1612548828125	1310.569702148438	-570.1338500976559	523.198974609375	1228.991577148438	-567.5432128906248	404.2652893066406	1234.601196289063	-601.0944824218748	461.757568359375	1129.64111328125	-608.7507324218748	406.1824645996094	1122.491088867188	-554.2923583984373	563.73974609375	950.9472045898439	-592.9294433593748	590.2623901367188	887.6477661132814	-541.5261230468748	549.4797973632812	869.9023437500001	-607.9921874999998	621.2286987304688	809.8607788085939	-589.351623535156	473.3724365234375	1066.125122070312	-142.8140716552732	341.9649658203125	1037.035278320312	-314.0886230468748	458.9512939453125	1055.23681640625	-489.1254882812498	435.730712890625	921.9541625976562	-129.1341552734373	518.20458984375	645.1061401367188	-160.7247009277342	571.7791748046875	670.4116821289062	-159.3710174560545	589.5723266601562	572.244140625	-201.1125183105468	526.5869750976562	566.8345947265625	-185.3957366943358	519.8025512695312	341.8043212890626	-187.2835998535155	572.51611328125	320.3694152832032	-208.0133514404296	564.2088623046875	236.8759155273438	-227.6057586669921	502.35009765625	244.1969451904297	-210.8399200439453	445.0210266113281	42.509506225586	-298.1202087402344	606.1476440429688	20.18943405151372	-210.6128387451172	664.7761840820312	29.05361747741706	-313.1156005859375	424.1631164550781	938.4674072265626	-492.8616943359373	533.0986328125	655.9671020507814	-501.5836791992186	477.8004760742188	673.9099121093751	-507.503448486328	472.1965637207031	568.5075683593751	-489.1730651855468	535.8275756835938	574.0622558593751	-490.1979064941405	360.0406799316406	358.5194396972657	-485.1213073730468	308.1864318847656	390.0919189453126	-483.5109558105468	240.7811584472656	336.5092163085939	-464.7217712402343	285.5317993164062	290.8071899414064	-462.6253662109374	85.65911102294922	260.500701904297	-387.4476928710937	131.9223937988281	96.24985504150401	-460.67333984375	160.1178283691406	72.00662231445321	-367.2448120117188	
92	0.364	586.8707885742188	1738.8984375	-295.8202514648434	530.0213623046875	1683.478149414062	-220.3421936035153	529.5272216796875	1691.100463867188	-368.0547485351559	399.5226135253906	1514.218383789062	-303.0304260253903	331.0570678710938	1315.335815429688	-242.3978881835935	331.4145812988281	1323.114624023438	-383.7457275390622	578.8134765625	1353.840576171875	-302.8169860839841	475.9531860351562	1459.71533203125	-129.5782775878903	437.6748046875	1294.701782226562	-46.80726242065401	497.474609375	1207.931030273438	-48.8573913574216	376.1716003417969	1211.814697265625	-37.83756637573215	420.0316467285156	1105.460693359375	-39.10862731933569	393.1873168945312	1107.080932617188	-118.0687561035154	508.4409484863281	916.7432861328125	-43.37019348144511	543.2185668945312	850.0038452148438	-86.74391174316388	474.2685241699219	829.6919555664062	-49.15578079223614	538.7832641601562	759.8994140625	-33.66038513183577	484.6511840820312	1475.2412109375	-470.2402954101559	466.9603881835938	1311.531860351563	-569.9529418945309	527.878173828125	1230.083618164063	-567.438781738281	409.0230407714844	1235.474975585938	-601.058898925781	465.6525573730469	1130.471557617188	-608.8305664062498	410.6645202636719	1123.877807617188	-554.3201904296873	567.8300170898438	951.7522583007814	-592.991760253906	593.9547729492188	888.2912597656251	-541.5928955078123	553.6417236328125	870.8480224609376	-608.315002441406	624.9605712890625	810.2648315429689	-589.9277343749998	477.0345153808594	1067.183471679688	-143.4933929443357	347.3201599121094	1038.076538085938	-313.6608581542966	463.7393798828125	1056.004028320312	-488.9394226074216	440.1463623046875	922.8645629882812	-128.883590698242	520.5636596679688	645.4387817382812	-160.541793823242	573.7853393554688	670.0958251953125	-160.2659606933592	591.4253540039062	571.9644775390625	-200.6149902343749	528.1803588867188	567.0809936523438	-185.1450195312499	520.75	341.8875732421876	-187.0096588134765	573.3992309570312	320.2958679199219	-207.9706573486327	564.7785034179688	236.933334350586	-227.5647430419921	503.1707763671875	244.5132293701172	-210.6737213134765	445.0688781738281	42.71807098388678	-298.392333984375	606.1470947265625	20.15454673767094	-210.5210418701172	664.779296875	29.06764411926277	-313.0521850585938	429.7947082519531	939.5218505859376	-492.3418273925779	541.658447265625	657.6261596679689	-501.6069335937498	486.018310546875	674.9751586914064	-507.6045532226561	481.4750061035156	569.6764526367189	-489.2671813964843	544.8578491210938	575.6219482421876	-490.1918945312499	370.9002380371094	359.2422485351564	-485.0031127929687	318.7306823730469	390.5128784179689	-482.6600646972655	251.2995910644531	337.0099487304689	-464.6778564453124	296.66650390625	290.9297485351564	-462.4955749511718	96.39631652832031	259.4339599609376	-387.3989562988281	145.8263244628906	96.15642547607432	-460.9305114746094	174.4695739746094	71.67485046386727	-368.244384765625	
93	0.368	592.3160400390625	1739.896484375	-295.7532958984371	535.3536987304688	1684.418823242188	-220.431732177734	534.9144897460938	1692.21728515625	-368.0095520019527	404.75439453125	1515.127319335938	-302.8904113769528	335.0671691894531	1316.262329101562	-242.6960449218747	336.6875305175781	1323.888427734375	-382.9992980957028	584.0892944335938	1354.825927734375	-302.7924804687497	481.5147705078125	1460.8251953125	-129.5437622070309	443.8990783691406	1295.846069335938	-46.61476516723604	503.741943359375	1209.1171875	-49.05175781249973	382.5649719238281	1212.859252929688	-37.19339370727512	425.6265869140625	1106.715087890625	-38.59624481201147	399.2456665039062	1107.9638671875	-117.5027313232419	515.8751831054688	918.1119384765625	-43.53899383544901	550.55078125	851.592529296875	-87.27454376220685	481.5845642089844	831.1471557617188	-48.89933395385724	547.0592651367188	761.3734741210938	-33.92332839965803	489.3803100585938	1476.26123046875	-470.2678222656247	471.6683349609375	1312.465576171875	-569.8623657226559	532.5718383789062	1230.952514648438	-567.3575439453123	413.6786804199219	1236.521118164063	-600.8311767578123	471.028564453125	1131.64453125	-608.488098144531	415.3788757324219	1124.72119140625	-554.1459960937498	571.9702758789062	952.6296386718751	-593.1512451171873	595.0643310546875	888.3985595703126	-541.3657226562498	556.73779296875	871.8784790039064	-608.6368408203123	628.5650634765625	810.6343383789064	-590.192932128906	482.5278015136719	1068.736206054688	-143.4978942871091	352.3822631835938	1039.298583984375	-313.077453613281	469.0043640136719	1057.1298828125	-488.6694641113279	444.6915893554688	923.705078125	-128.9711151123045	522.8410034179688	645.8824462890625	-160.2404174804686	576.7471923828125	670.0088500976562	-158.8157806396483	592.9657592773438	571.5782470703125	-200.2594299316405	530.004638671875	567.4895629882812	-184.8375396728514	521.613525390625	342.0322265625001	-186.814971923828	574.2171020507812	320.2962341308594	-207.8689727783202	565.3157958984375	237.0049591064454	-227.4894561767578	503.7546997070312	244.6876373291016	-210.5227966308593	445.1073303222656	42.96046447753913	-298.5058288574219	606.1289672851562	20.11321640014653	-210.4644317626953	664.821533203125	29.10169601440437	-312.94580078125	434.9598999023438	940.5319213867189	-491.9662170410154	551.0169677734375	658.8947753906251	-502.2858886718748	494.4519653320312	676.1914062500001	-507.4578552246092	490.5332336425781	570.7882690429689	-489.2069702148436	554.0138549804688	577.2200927734376	-490.4271850585936	381.5687255859375	359.973846435547	-484.8952331542968	329.334716796875	391.0125122070314	-482.7276000976561	262.2180480957031	336.872772216797	-464.6477661132812	307.9933776855469	291.2966613769532	-462.5016479492187	107.3934631347656	257.8659973144532	-387.2374572753906	159.7627258300781	96.70262908935557	-460.8769836425781	189.2383270263672	71.27066802978524	-368.7275085449219	
